<?xml version="1.0" encoding="utf-8"?>
<!-- Generator: Adobe Illustrator 16.0.0, SVG Export Plug-In . SVG Version: 6.00 Build 0)  -->
<!DOCTYPE svg PUBLIC "-//W3C//DTD SVG 1.1//EN" "http://www.w3.org/Graphics/SVG/1.1/DTD/svg11.dtd">
<svg version="1.1" id="Layer_1" xmlns="http://www.w3.org/2000/svg" xmlns:xlink="http://www.w3.org/1999/xlink" x="0px" y="0px"
	 width="252px" height="72px" viewBox="0 0 252 72" enable-background="new 0 0 252 72" xml:space="preserve">
<g>
	<rect x="154.197" y="15.324" fill="#00648C" width="3.438" height="10.321"/>
	<path fill="#00648C" d="M168.916,16.266c-0.721-0.788-1.676-1.183-2.863-1.183c-0.438,0-0.836,0.054-1.193,0.163
		c-0.356,0.107-0.659,0.258-0.905,0.453c-0.246,0.194-0.442,0.375-0.588,0.54c-0.14,0.159-0.275,0.343-0.406,0.552v-1.467h-3.428
		l0.01,0.5c0.008,0.333,0.013,1.36,0.013,3.083c0,1.723-0.009,3.969-0.021,6.738h3.428v-5.758c0-0.355,0.037-0.637,0.113-0.844
		c0.146-0.356,0.367-0.652,0.662-0.891c0.295-0.242,0.662-0.36,1.1-0.36c0.596,0,1.035,0.206,1.316,0.618
		c0.281,0.414,0.422,0.984,0.422,1.715v5.52H170V19.73C170,18.208,169.639,17.054,168.916,16.266z"/>
	<path fill="#00648C" d="M155.938,10.355c-0.576,0-1.041,0.167-1.399,0.504s-0.537,0.762-0.537,1.277
		c0,0.506,0.174,0.93,0.521,1.271c0.346,0.34,0.806,0.511,1.375,0.511h0.021c0.584,0,1.056-0.171,1.412-0.511
		c0.356-0.34,0.532-0.763,0.524-1.271c-0.004-0.515-0.184-0.939-0.53-1.277C156.977,10.522,156.514,10.355,155.938,10.355z"/>
</g>
<path fill="#00648C" d="M19.388,14.898v-1.551c0-0.232,0.01-0.413,0.032-0.54c0.021-0.128,0.07-0.253,0.147-0.377
	c0.076-0.124,0.2-0.209,0.371-0.257c0.172-0.048,0.399-0.071,0.683-0.071h1.552V9h-2.479c-1.435,0-2.465,0.34-3.092,1.021
	c-0.626,0.681-0.938,1.684-0.938,3.009v1.868h-1.857V18h1.856v9h3.726v-9h2.479l0.328-3.102H19.388z"/>
<path fill="#00648C" d="M63,12.427c-0.708,0.305-1.416,0.495-2.125,0.571c0.8-0.48,1.341-1.158,1.623-2.033
	c-0.731,0.434-1.512,0.731-2.342,0.891c-0.731-0.776-1.63-1.165-2.695-1.165c-1.021,0-1.891,0.359-2.609,1.079
	c-0.721,0.72-1.08,1.589-1.08,2.61c0,0.273,0.03,0.555,0.092,0.845c-1.508-0.076-2.923-0.455-4.244-1.137
	c-1.32-0.681-2.441-1.589-3.363-2.724c-0.334,0.571-0.502,1.191-0.502,1.861c0,0.632,0.147,1.219,0.445,1.759
	c0.297,0.541,0.696,0.978,1.199,1.313c-0.595-0.023-1.149-0.179-1.667-0.468v0.045c0,0.891,0.279,1.673,0.839,2.347
	c0.56,0.674,1.266,1.098,2.119,1.273c-0.32,0.084-0.644,0.125-0.972,0.125c-0.213,0-0.445-0.018-0.696-0.057
	c0.236,0.739,0.67,1.346,1.302,1.822c0.632,0.476,1.349,0.721,2.147,0.736c-1.34,1.051-2.867,1.576-4.58,1.576
	c-0.327,0-0.624-0.016-0.891-0.046c1.713,1.104,3.602,1.656,5.665,1.656c1.31,0,2.54-0.207,3.688-0.622
	c1.15-0.416,2.133-0.971,2.947-1.668c0.814-0.696,1.518-1.498,2.106-2.404c0.591-0.906,1.03-1.852,1.319-2.838
	S61.16,15.8,61.16,14.81c0-0.213-0.004-0.373-0.012-0.48C61.873,13.809,62.489,13.173,63,12.427z"/>
<g>
	<path fill="#00648C" d="M91.357,20.461c-0.191-0.256-0.401-0.494-0.633-0.714c-0.23-0.22-0.462-0.421-0.692-0.601
		c-0.23-0.18-0.441-0.353-0.633-0.519c-0.191-0.166-0.347-0.339-0.465-0.519c-0.119-0.181-0.179-0.364-0.179-0.552
		c0-0.26,0.083-0.503,0.249-0.73c0.165-0.227,0.367-0.447,0.605-0.66c0.238-0.213,0.477-0.445,0.714-0.698
		c0.238-0.253,0.439-0.586,0.606-1.001c0.165-0.415,0.248-0.889,0.248-1.422c0-0.634-0.141-1.244-0.422-1.828
		c-0.281-0.584-0.678-1.039-1.189-1.363h1.46L92.487,9H87.76c-0.671,0-1.345,0.072-2.022,0.217
		c-1.003,0.224-1.847,0.734-2.531,1.531c-0.686,0.797-1.027,1.7-1.027,2.71c0,1.067,0.384,1.954,1.151,2.661s1.689,1.06,2.764,1.06
		c0.216,0,0.469-0.018,0.758-0.054c-0.015,0.058-0.04,0.136-0.076,0.233c-0.036,0.097-0.064,0.175-0.087,0.232
		c-0.021,0.058-0.039,0.128-0.054,0.211c-0.015,0.083-0.021,0.167-0.021,0.254c0,0.476,0.23,1.013,0.692,1.612
		c-0.548,0.015-1.089,0.062-1.623,0.146c-0.533,0.082-1.093,0.213-1.676,0.389c-0.585,0.177-1.107,0.434-1.569,0.769
		c-0.461,0.335-0.808,0.733-1.038,1.195c-0.267,0.534-0.4,1.021-0.4,1.46c0,0.483,0.108,0.922,0.324,1.314
		c0.217,0.393,0.494,0.714,0.833,0.963c0.339,0.249,0.73,0.458,1.174,0.628c0.443,0.169,0.884,0.29,1.319,0.362
		C85.087,26.965,85.518,27,85.943,27c1.933,0,3.447-0.473,4.543-1.416c1.01-0.881,1.515-1.897,1.515-3.051
		c0-0.412-0.06-0.796-0.179-1.152C91.704,21.023,91.549,20.717,91.357,20.461z M87.188,16.529c-0.368,0-0.718-0.094-1.05-0.281
		c-0.331-0.188-0.612-0.431-0.844-0.73c-0.23-0.299-0.433-0.637-0.605-1.012s-0.301-0.75-0.384-1.125s-0.124-0.732-0.124-1.071
		c0-0.692,0.184-1.287,0.551-1.784c0.368-0.498,0.888-0.747,1.559-0.747c0.476,0,0.906,0.148,1.292,0.444
		c0.387,0.296,0.688,0.671,0.908,1.125c0.221,0.455,0.39,0.924,0.509,1.412c0.119,0.487,0.179,0.947,0.179,1.379
		c0,0.722-0.157,1.301-0.471,1.737S87.887,16.529,87.188,16.529z M90.178,24.652c-0.197,0.34-0.466,0.604-0.806,0.795
		c-0.339,0.191-0.7,0.332-1.087,0.422c-0.386,0.091-0.791,0.136-1.217,0.136c-0.462,0-0.919-0.054-1.374-0.162
		c-0.454-0.108-0.889-0.272-1.303-0.492c-0.415-0.22-0.75-0.522-1.007-0.909C83.128,24.057,83,23.618,83,23.128
		c0-0.432,0.098-0.818,0.292-1.157c0.195-0.339,0.443-0.609,0.747-0.812c0.302-0.201,0.656-0.367,1.06-0.497
		c0.404-0.13,0.793-0.22,1.168-0.271c0.375-0.051,0.758-0.076,1.147-0.076c0.237,0,0.418,0.008,0.54,0.021
		c0.044,0.029,0.154,0.105,0.33,0.228c0.177,0.122,0.296,0.206,0.357,0.249s0.173,0.127,0.335,0.248
		c0.163,0.123,0.277,0.215,0.347,0.277c0.068,0.061,0.167,0.152,0.297,0.275c0.13,0.123,0.226,0.229,0.287,0.318
		c0.061,0.089,0.137,0.2,0.227,0.33c0.09,0.131,0.154,0.254,0.189,0.373c0.036,0.119,0.07,0.25,0.103,0.39
		c0.032,0.142,0.049,0.287,0.049,0.438C90.477,23.917,90.377,24.314,90.178,24.652z"/>
	<polygon fill="#00648C" points="96.23,11.769 96.23,9 94.846,9 94.846,11.769 92.076,11.769 92.076,13.153 94.846,13.153 
		94.846,15.923 96.23,15.923 96.23,13.153 99,13.153 99,11.769 	"/>
</g>
<g>
	<path fill="#00648C" d="M133.527,14.56c0.195-0.584,0.293-1.19,0.293-1.817c0-0.836-0.184-1.623-0.553-2.358
		c-0.771,0-1.453,0.141-2.043,0.422c-0.593,0.281-1.267,0.717-2.023,1.309c-0.951-0.23-1.961-0.346-3.028-0.346
		c-1.168,0-2.282,0.126-3.343,0.378c-0.771-0.606-1.453-1.051-2.044-1.336s-1.276-0.427-2.056-0.427
		c-0.367,0.735-0.551,1.521-0.551,2.358c0,0.635,0.096,1.248,0.291,1.839c-0.98,1.146-1.472,2.574-1.472,4.283
		c0,1.5,0.224,2.693,0.67,3.581c0.238,0.468,0.549,0.884,0.933,1.243c0.381,0.361,0.816,0.653,1.309,0.877
		c0.49,0.224,0.984,0.409,1.48,0.557c0.498,0.148,1.049,0.256,1.649,0.324c0.603,0.069,1.135,0.114,1.597,0.136
		c0.461,0.021,0.973,0.032,1.535,0.032c0.664,0,1.266-0.016,1.807-0.049c0.541-0.032,1.16-0.111,1.854-0.237
		c0.696-0.126,1.31-0.298,1.84-0.514c0.53-0.217,1.038-0.526,1.525-0.931c0.485-0.404,0.866-0.883,1.141-1.438
		c0.438-0.895,0.66-2.089,0.66-3.581C134.999,17.149,134.51,15.714,133.527,14.56z M132.23,22.43
		c-0.23,0.473-0.522,0.844-0.877,1.114c-0.354,0.27-0.793,0.487-1.318,0.649c-0.526,0.162-1.031,0.269-1.516,0.318
		c-0.482,0.051-1.021,0.076-1.611,0.076h-1.817c-0.591,0-1.128-0.025-1.61-0.076c-0.483-0.05-0.988-0.156-1.516-0.318
		c-0.527-0.162-0.967-0.379-1.318-0.649c-0.354-0.271-0.646-0.642-0.877-1.114c-0.23-0.473-0.347-1.025-0.347-1.66
		c0-0.866,0.249-1.602,0.746-2.207c0.498-0.605,1.172-0.909,2.022-0.909c0.311,0,1.014,0.076,2.109,0.227
		C124.812,17.96,125.38,18,126,18s1.186-0.04,1.698-0.119c1.11-0.151,1.813-0.227,2.108-0.227c0.852,0,1.525,0.303,2.022,0.909
		c0.498,0.605,0.746,1.341,0.746,2.207C132.576,21.404,132.462,21.957,132.23,22.43z"/>
	<path fill="#00648C" d="M123.322,19.061c-0.221-0.246-0.481-0.368-0.784-0.368c-0.304,0-0.563,0.123-0.784,0.368
		c-0.22,0.244-0.375,0.52-0.465,0.821c-0.091,0.303-0.137,0.599-0.137,0.888c0,0.288,0.046,0.584,0.137,0.887
		c0.09,0.303,0.245,0.576,0.465,0.822c0.221,0.245,0.48,0.367,0.784,0.367c0.303,0,0.563-0.122,0.784-0.367
		c0.22-0.246,0.375-0.52,0.465-0.822c0.091-0.303,0.136-0.599,0.136-0.887c0-0.289-0.045-0.584-0.136-0.888
		C123.697,19.58,123.543,19.305,123.322,19.061z"/>
	<path fill="#00648C" d="M130.246,19.061c-0.221-0.246-0.482-0.368-0.784-0.368c-0.303,0-0.563,0.123-0.785,0.368
		c-0.22,0.244-0.375,0.52-0.465,0.821c-0.09,0.303-0.136,0.599-0.136,0.888c0,0.288,0.046,0.584,0.136,0.887
		c0.09,0.303,0.245,0.576,0.465,0.822c0.222,0.245,0.482,0.367,0.785,0.367c0.302,0,0.563-0.122,0.784-0.367
		c0.22-0.246,0.374-0.52,0.465-0.822c0.09-0.303,0.135-0.599,0.135-0.887c0-0.289-0.045-0.584-0.135-0.888
		C130.62,19.58,130.466,19.305,130.246,19.061z"/>
</g>
<g>
	<path fill="#00648C" d="M191.455,22.09c-0.684,0-1.262,0.239-1.739,0.717c-0.478,0.477-0.716,1.057-0.716,1.738
		c0,0.681,0.238,1.261,0.716,1.738c0.478,0.477,1.058,0.716,1.739,0.716s1.26-0.239,1.736-0.716
		c0.479-0.478,0.718-1.057,0.718-1.738c0-0.681-0.239-1.262-0.718-1.738C192.716,22.329,192.137,22.09,191.455,22.09z"/>
	<path fill="#00648C" d="M197.104,18.895c-0.963-0.972-2.065-1.745-3.312-2.32c-1.243-0.575-2.547-0.918-3.911-1.029h-0.062
		c-0.223,0-0.405,0.072-0.549,0.217c-0.181,0.154-0.271,0.354-0.271,0.601v1.726c0,0.213,0.069,0.396,0.211,0.55
		c0.142,0.153,0.317,0.239,0.53,0.255c1.951,0.188,3.619,0.974,5.004,2.358c1.386,1.385,2.171,3.053,2.359,5.005
		c0.017,0.213,0.102,0.39,0.256,0.529c0.151,0.142,0.336,0.212,0.549,0.212h1.726c0.248,0,0.447-0.089,0.601-0.269
		c0.164-0.171,0.234-0.375,0.219-0.613c-0.11-1.363-0.453-2.668-1.029-3.912C198.85,20.961,198.075,19.857,197.104,18.895z"/>
	<path fill="#00648C" d="M205.464,19.732c-0.911-2.042-2.165-3.854-3.758-5.439c-1.585-1.594-3.397-2.846-5.438-3.758
		c-2.041-0.912-4.178-1.423-6.41-1.534h-0.039c-0.221,0-0.408,0.077-0.562,0.23C189.085,9.384,189,9.581,189,9.819v1.828
		c0,0.213,0.075,0.398,0.225,0.556c0.148,0.158,0.33,0.24,0.543,0.249c1.832,0.111,3.572,0.546,5.221,1.304
		c1.65,0.758,3.082,1.745,4.296,2.959c1.215,1.214,2.2,2.646,2.959,4.294c0.759,1.65,1.188,3.39,1.291,5.223
		c0.009,0.213,0.092,0.394,0.249,0.543c0.158,0.148,0.349,0.224,0.568,0.224h1.828c0.239,0,0.436-0.085,0.588-0.256
		c0.17-0.171,0.248-0.37,0.23-0.601C206.889,23.91,206.376,21.772,205.464,19.732z"/>
</g>
<g>
	<rect x="154.197" y="51.324" fill="#FFFFFF" width="3.438" height="10.32"/>
	<path fill="#FFFFFF" d="M168.916,52.266c-0.721-0.787-1.676-1.183-2.863-1.183c-0.438,0-0.836,0.054-1.193,0.163
		c-0.356,0.107-0.659,0.258-0.905,0.453c-0.246,0.193-0.442,0.375-0.588,0.539c-0.14,0.158-0.275,0.344-0.406,0.553v-1.467h-3.428
		l0.01,0.5c0.008,0.332,0.013,1.359,0.013,3.082s-0.009,3.969-0.021,6.738h3.428v-5.759c0-0.354,0.037-0.637,0.113-0.844
		c0.146-0.354,0.367-0.651,0.662-0.892c0.295-0.241,0.662-0.359,1.1-0.359c0.596,0,1.035,0.206,1.316,0.618
		c0.281,0.414,0.422,0.983,0.422,1.715v5.521H170V55.73C170,54.207,169.639,53.055,168.916,52.266z"/>
	<path fill="#FFFFFF" d="M155.938,46.355c-0.576,0-1.041,0.166-1.399,0.504s-0.537,0.762-0.537,1.276
		c0,0.507,0.174,0.931,0.521,1.271c0.346,0.34,0.806,0.512,1.375,0.512h0.021c0.584,0,1.056-0.172,1.412-0.512
		s0.532-0.764,0.524-1.271c-0.004-0.516-0.184-0.938-0.53-1.276S156.514,46.355,155.938,46.355z"/>
</g>
<path fill="#FFFFFF" d="M19.388,50.898v-1.553c0-0.231,0.01-0.412,0.032-0.539c0.021-0.129,0.07-0.255,0.147-0.377
	c0.076-0.125,0.2-0.209,0.371-0.258c0.172-0.048,0.399-0.07,0.683-0.07h1.552V45h-2.479c-1.435,0-2.465,0.34-3.092,1.021
	c-0.626,0.681-0.938,1.684-0.938,3.008v1.869h-1.857V54h1.856v9h3.726v-9h2.479l0.328-3.102H19.388z"/>
<path fill="#FFFFFF" d="M63,48.427c-0.708,0.306-1.416,0.495-2.125,0.571c0.8-0.48,1.341-1.158,1.623-2.033
	c-0.731,0.434-1.512,0.73-2.342,0.891c-0.731-0.775-1.63-1.164-2.695-1.164c-1.021,0-1.891,0.358-2.609,1.078
	c-0.721,0.721-1.08,1.59-1.08,2.61c0,0.272,0.03,0.556,0.092,0.845c-1.508-0.076-2.923-0.455-4.244-1.137
	c-1.32-0.682-2.441-1.589-3.363-2.725c-0.334,0.572-0.502,1.191-0.502,1.861c0,0.633,0.147,1.219,0.445,1.76
	c0.297,0.541,0.696,0.979,1.199,1.313c-0.595-0.022-1.149-0.18-1.667-0.469v0.045c0,0.892,0.279,1.674,0.839,2.349
	c0.56,0.674,1.266,1.098,2.119,1.272c-0.32,0.084-0.644,0.125-0.972,0.125c-0.213,0-0.445-0.019-0.696-0.058
	c0.236,0.739,0.67,1.347,1.302,1.822c0.632,0.477,1.349,0.721,2.147,0.736c-1.34,1.051-2.867,1.576-4.58,1.576
	c-0.327,0-0.624-0.016-0.891-0.047c1.713,1.104,3.602,1.656,5.665,1.656c1.31,0,2.54-0.207,3.688-0.621
	c1.15-0.416,2.133-0.972,2.947-1.668c0.814-0.697,1.518-1.498,2.106-2.404c0.591-0.906,1.03-1.853,1.319-2.838
	c0.289-0.986,0.435-1.975,0.435-2.965c0-0.213-0.004-0.373-0.012-0.479C61.873,49.809,62.489,49.173,63,48.427z"/>
<g>
	<path fill="#FFFFFF" d="M91.357,56.461c-0.191-0.256-0.401-0.494-0.633-0.714c-0.23-0.22-0.462-0.421-0.692-0.601
		c-0.23-0.181-0.441-0.354-0.633-0.521c-0.191-0.165-0.347-0.339-0.465-0.519c-0.119-0.182-0.179-0.364-0.179-0.553
		c0-0.26,0.083-0.504,0.249-0.729c0.165-0.228,0.367-0.447,0.605-0.66c0.238-0.213,0.477-0.444,0.714-0.697
		c0.238-0.253,0.439-0.586,0.606-1.001c0.165-0.415,0.248-0.889,0.248-1.423c0-0.634-0.141-1.243-0.422-1.828
		c-0.281-0.584-0.678-1.038-1.189-1.362h1.46L92.487,45H87.76c-0.671,0-1.345,0.072-2.022,0.217
		c-1.003,0.223-1.847,0.733-2.531,1.53c-0.686,0.797-1.027,1.7-1.027,2.71c0,1.066,0.384,1.954,1.151,2.66
		c0.768,0.707,1.689,1.061,2.764,1.061c0.216,0,0.469-0.018,0.758-0.055c-0.015,0.059-0.04,0.137-0.076,0.232
		c-0.036,0.097-0.064,0.176-0.087,0.232c-0.021,0.059-0.039,0.128-0.054,0.211c-0.015,0.083-0.021,0.167-0.021,0.256
		c0,0.475,0.23,1.012,0.692,1.61c-0.548,0.015-1.089,0.062-1.623,0.146c-0.533,0.082-1.093,0.213-1.676,0.39
		c-0.585,0.177-1.107,0.434-1.569,0.769c-0.461,0.336-0.808,0.733-1.038,1.195c-0.267,0.534-0.4,1.021-0.4,1.46
		c0,0.483,0.108,0.922,0.324,1.313c0.217,0.394,0.494,0.715,0.833,0.963c0.339,0.25,0.73,0.459,1.174,0.629
		c0.443,0.169,0.884,0.289,1.319,0.361C85.087,62.965,85.518,63,85.943,63c1.933,0,3.447-0.473,4.543-1.416
		c1.01-0.881,1.515-1.896,1.515-3.051c0-0.412-0.06-0.797-0.179-1.152C91.704,57.023,91.549,56.717,91.357,56.461z M87.188,52.529
		c-0.368,0-0.718-0.094-1.05-0.281c-0.331-0.188-0.612-0.432-0.844-0.73c-0.23-0.299-0.433-0.637-0.605-1.012
		s-0.301-0.75-0.384-1.125s-0.124-0.732-0.124-1.07c0-0.692,0.184-1.287,0.551-1.785c0.368-0.498,0.888-0.746,1.559-0.746
		c0.476,0,0.906,0.147,1.292,0.443c0.387,0.295,0.688,0.67,0.908,1.125c0.221,0.454,0.39,0.924,0.509,1.411s0.179,0.946,0.179,1.38
		c0,0.721-0.157,1.301-0.471,1.736S87.887,52.529,87.188,52.529z M90.178,60.652c-0.197,0.34-0.466,0.604-0.806,0.795
		c-0.339,0.191-0.7,0.332-1.087,0.422c-0.386,0.091-0.791,0.136-1.217,0.136c-0.462,0-0.919-0.054-1.374-0.162
		c-0.454-0.108-0.889-0.272-1.303-0.491c-0.415-0.221-0.75-0.522-1.007-0.91C83.128,60.057,83,59.618,83,59.128
		c0-0.433,0.098-0.817,0.292-1.157c0.195-0.339,0.443-0.609,0.747-0.812c0.302-0.201,0.656-0.367,1.06-0.497
		c0.404-0.13,0.793-0.221,1.168-0.271s0.758-0.076,1.147-0.076c0.237,0,0.418,0.009,0.54,0.021c0.044,0.029,0.154,0.105,0.33,0.229
		c0.177,0.121,0.296,0.205,0.357,0.248s0.173,0.127,0.335,0.248c0.163,0.123,0.277,0.215,0.347,0.277
		c0.068,0.061,0.167,0.152,0.297,0.275s0.226,0.229,0.287,0.318c0.061,0.088,0.137,0.199,0.227,0.33
		c0.09,0.131,0.154,0.254,0.189,0.372c0.036,0.119,0.07,0.25,0.103,0.39c0.032,0.143,0.049,0.287,0.049,0.438
		C90.477,59.917,90.377,60.314,90.178,60.652z"/>
	<polygon fill="#FFFFFF" points="96.23,47.77 96.23,45 94.846,45 94.846,47.77 92.076,47.77 92.076,49.152 94.846,49.152 
		94.846,51.923 96.23,51.923 96.23,49.152 99,49.152 99,47.77 	"/>
</g>
<g>
	<path fill="#FFFFFF" d="M133.527,50.561c0.195-0.584,0.293-1.189,0.293-1.817c0-0.836-0.184-1.622-0.553-2.357
		c-0.771,0-1.453,0.142-2.043,0.423c-0.593,0.28-1.267,0.717-2.023,1.309c-0.951-0.23-1.961-0.346-3.028-0.346
		c-1.168,0-2.282,0.125-3.343,0.379c-0.771-0.606-1.453-1.053-2.044-1.336c-0.591-0.285-1.276-0.428-2.056-0.428
		c-0.367,0.734-0.551,1.521-0.551,2.356c0,0.635,0.096,1.248,0.291,1.84c-0.98,1.146-1.472,2.574-1.472,4.283
		c0,1.5,0.224,2.692,0.67,3.581c0.238,0.468,0.549,0.884,0.933,1.242c0.381,0.361,0.816,0.653,1.309,0.877
		c0.49,0.225,0.984,0.41,1.48,0.558c0.498,0.147,1.049,0.256,1.649,0.324c0.603,0.069,1.135,0.114,1.597,0.136
		c0.461,0.021,0.973,0.032,1.535,0.032c0.664,0,1.266-0.017,1.807-0.05c0.541-0.031,1.16-0.11,1.854-0.236
		c0.696-0.126,1.31-0.298,1.84-0.514c0.53-0.217,1.038-0.526,1.525-0.932c0.485-0.404,0.866-0.883,1.141-1.438
		c0.438-0.896,0.66-2.09,0.66-3.581C134.999,53.148,134.51,51.714,133.527,50.561z M132.23,58.43
		c-0.23,0.473-0.522,0.844-0.877,1.114c-0.354,0.271-0.793,0.487-1.318,0.649c-0.526,0.162-1.031,0.269-1.516,0.317
		c-0.482,0.052-1.021,0.076-1.611,0.076h-1.817c-0.591,0-1.128-0.024-1.61-0.076c-0.483-0.05-0.988-0.155-1.516-0.317
		s-0.967-0.379-1.318-0.649c-0.354-0.271-0.646-0.642-0.877-1.114s-0.347-1.025-0.347-1.66c0-0.865,0.249-1.602,0.746-2.207
		c0.498-0.604,1.172-0.908,2.022-0.908c0.311,0,1.014,0.076,2.109,0.228C124.812,53.96,125.38,54,126,54s1.186-0.039,1.698-0.119
		c1.11-0.15,1.813-0.227,2.108-0.227c0.852,0,1.525,0.303,2.022,0.908c0.498,0.604,0.746,1.34,0.746,2.207
		C132.576,57.404,132.462,57.957,132.23,58.43z"/>
	<path fill="#FFFFFF" d="M123.322,55.061c-0.221-0.246-0.481-0.367-0.784-0.367c-0.304,0-0.563,0.121-0.784,0.367
		c-0.22,0.244-0.375,0.521-0.465,0.821c-0.091,0.304-0.137,0.599-0.137,0.888s0.046,0.584,0.137,0.888
		c0.09,0.303,0.245,0.575,0.465,0.821c0.221,0.246,0.48,0.367,0.784,0.367c0.303,0,0.563-0.121,0.784-0.367
		c0.22-0.246,0.375-0.52,0.465-0.821c0.091-0.304,0.136-0.599,0.136-0.888s-0.045-0.584-0.136-0.888
		C123.697,55.58,123.543,55.305,123.322,55.061z"/>
	<path fill="#FFFFFF" d="M130.246,55.061c-0.221-0.246-0.482-0.367-0.784-0.367c-0.303,0-0.563,0.121-0.785,0.367
		c-0.22,0.244-0.375,0.521-0.465,0.821c-0.09,0.304-0.136,0.599-0.136,0.888s0.046,0.584,0.136,0.888
		c0.09,0.303,0.245,0.575,0.465,0.821c0.222,0.246,0.482,0.367,0.785,0.367c0.302,0,0.563-0.121,0.784-0.367
		c0.22-0.246,0.374-0.52,0.465-0.821c0.09-0.304,0.135-0.599,0.135-0.888s-0.045-0.584-0.135-0.888
		C130.62,55.58,130.466,55.305,130.246,55.061z"/>
</g>
<g>
	<path fill="#FFFFFF" d="M191.455,58.09c-0.684,0-1.262,0.239-1.739,0.717S189,59.864,189,60.545c0,0.682,0.238,1.262,0.716,1.738
		s1.058,0.716,1.739,0.716s1.26-0.239,1.736-0.716c0.479-0.479,0.718-1.057,0.718-1.738c0-0.681-0.239-1.262-0.718-1.738
		C192.716,58.329,192.137,58.09,191.455,58.09z"/>
	<path fill="#FFFFFF" d="M197.104,54.895c-0.963-0.972-2.065-1.744-3.312-2.319c-1.243-0.574-2.547-0.918-3.911-1.028h-0.062
		c-0.223,0-0.405,0.072-0.549,0.217c-0.181,0.153-0.271,0.354-0.271,0.602v1.727c0,0.213,0.069,0.396,0.211,0.549
		c0.142,0.154,0.317,0.239,0.53,0.256c1.951,0.188,3.619,0.975,5.004,2.358c1.386,1.386,2.171,3.054,2.359,5.005
		c0.017,0.213,0.102,0.391,0.256,0.529c0.151,0.143,0.336,0.212,0.549,0.212h1.726c0.248,0,0.447-0.089,0.601-0.269
		c0.164-0.172,0.234-0.375,0.219-0.613c-0.11-1.363-0.453-2.668-1.029-3.912C198.85,56.961,198.075,55.857,197.104,54.895z"/>
	<path fill="#FFFFFF" d="M205.464,55.732c-0.911-2.041-2.165-3.854-3.758-5.439c-1.585-1.594-3.397-2.846-5.438-3.758
		s-4.178-1.424-6.41-1.534h-0.039c-0.221,0-0.408,0.077-0.562,0.229c-0.171,0.153-0.256,0.35-0.256,0.588v1.828
		c0,0.213,0.075,0.397,0.226,0.557c0.147,0.158,0.328,0.24,0.543,0.249c1.832,0.11,3.571,0.546,5.221,1.304
		c1.648,0.76,3.08,1.745,4.295,2.959c1.215,1.215,2.201,2.646,2.959,4.295c0.759,1.65,1.189,3.391,1.291,5.223
		c0.009,0.213,0.092,0.395,0.249,0.543S204.133,63,204.354,63h1.828c0.238,0,0.435-0.085,0.588-0.256
		c0.17-0.171,0.246-0.37,0.229-0.602C206.889,59.91,206.376,57.771,205.464,55.732z"/>
</g>
<path fill="#00648C" d="M242.6,24.642l-3.71-3.71c0.894-1.291,1.341-2.729,1.341-4.316c0-1.031-0.199-2.018-0.6-2.958
	c-0.4-0.941-0.941-1.752-1.623-2.434s-1.492-1.223-2.434-1.623C234.633,9.2,233.646,9,232.615,9s-2.018,0.2-2.959,0.601
	c-0.94,0.4-1.752,0.941-2.434,1.623s-1.223,1.493-1.622,2.434c-0.4,0.941-0.601,1.927-0.601,2.958s0.2,2.017,0.601,2.958
	c0.399,0.941,0.94,1.752,1.622,2.434s1.493,1.223,2.434,1.623c0.941,0.4,1.928,0.601,2.959,0.601c1.587,0,3.025-0.448,4.316-1.342
	l3.711,3.699c0.259,0.274,0.583,0.411,0.973,0.411c0.375,0,0.699-0.137,0.974-0.411S243,25.99,243,25.615
	C243,25.233,242.867,24.909,242.6,24.642z M236.039,20.039c-0.948,0.948-2.09,1.423-3.424,1.423s-2.475-0.475-3.424-1.423
	c-0.947-0.948-1.422-2.089-1.422-3.424c0-1.334,0.475-2.475,1.422-3.423c0.949-0.948,2.09-1.422,3.424-1.422
	s2.476,0.474,3.424,1.422c0.949,0.948,1.423,2.089,1.423,3.423C237.462,17.95,236.987,19.091,236.039,20.039z"/>
<path fill="#FFFFFF" d="M242.6,60.641l-3.71-3.71c0.894-1.291,1.341-2.729,1.341-4.315c0-1.031-0.199-2.018-0.6-2.959
	s-0.941-1.752-1.623-2.434S236.516,46,235.574,45.6s-1.928-0.601-2.959-0.601s-2.018,0.2-2.959,0.601
	c-0.94,0.4-1.752,0.941-2.434,1.623s-1.223,1.492-1.622,2.434c-0.4,0.941-0.601,1.928-0.601,2.959s0.2,2.017,0.601,2.958
	c0.399,0.941,0.94,1.752,1.622,2.434s1.493,1.223,2.434,1.623c0.941,0.4,1.928,0.601,2.959,0.601c1.587,0,3.025-0.448,4.316-1.342
	l3.711,3.699c0.259,0.274,0.583,0.411,0.973,0.411c0.375,0,0.699-0.137,0.974-0.411S243,61.989,243,61.614
	C243,61.232,242.867,60.908,242.6,60.641z M236.039,56.038c-0.948,0.948-2.09,1.423-3.424,1.423s-2.475-0.475-3.424-1.423
	c-0.947-0.948-1.422-2.089-1.422-3.424c0-1.334,0.475-2.476,1.422-3.423c0.949-0.949,2.09-1.423,3.424-1.423
	s2.476,0.474,3.424,1.423c0.949,0.947,1.423,2.089,1.423,3.423C237.462,53.949,236.987,55.09,236.039,56.038z"/>
</svg>
