<?xml version="1.0" encoding="utf-8"?>
<!-- Generator: Adobe Illustrator 19.0.0, SVG Export Plug-In . SVG Version: 6.00 Build 0)  -->
<svg version="1.1" id="Layer_1" xmlns="http://www.w3.org/2000/svg" xmlns:xlink="http://www.w3.org/1999/xlink" x="0px" y="0px"
	 width="180.36px" height="180.36px" viewBox="0 0 180.36 180.36" enable-background="new 0 0 180.36 180.36" xml:space="preserve">
<path fill="#94D34A" d="M90.18,0C40.38,0,0,40.38,0,90.18s40.38,90.18,90.18,90.18s90.18-40.38,90.18-90.18S139.99,0,90.18,0z
	 M102.36,51.01c5.98,0,10.83,4.85,10.83,10.83s-4.85,10.83-10.83,10.83s-10.83-4.85-10.83-10.83S96.38,51.01,102.36,51.01z
	 M93.59,108.19c8.83,7.01,19.28,20.8,11.47,44.19c0,0-34.52-2.6-22.24-46.67c0,0.01-0.01,0.02-0.01,0.02
	c-25.48,38.69-50.17,14.04-50.17,14.04c12.63-21.19,29.9-22.26,40.97-20.15C17.77,66.33,60.08,27.51,60.08,27.51
	c38.56,23.94,31,57.65,25.85,71.26c6.69-12.56,27.28-41.17,71.12-27.4C157.05,71.37,155.25,128.77,93.59,108.19z"/>
</svg>
